<svg width="14" height="16" viewBox="0 0 14 16" fill="none" xmlns="http://www.w3.org/2000/svg">
<path d="M7.27813 12.6835C6.7316 13.2278 6.06944 13.4965 5.29167 13.4896C4.51389 13.4826 3.85417 13.2071 3.3125 12.6631C2.77083 12.1191 2.5 11.4628 2.5 10.6944C2.5 9.9259 2.77326 9.26951 3.31979 8.72521L6.72188 5.31646C7.2684 4.77215 7.93056 4.50347 8.70833 4.51042C9.48611 4.51736 10.1458 4.79285 10.6875 5.3369C11.2292 5.88094 11.5 6.53719 11.5 7.30565C11.5 8.0741 11.2267 8.73049 10.6802 9.27479L7.27813 12.6835ZM4.375 11.6042C4.73611 11.9653 5.10147 12.0945 5.47108 11.992C5.84069 11.8894 6.09339 11.767 6.22917 11.625L7.39583 10.4583L5.54167 8.625L4.375 9.79167C4.125 10.0417 4 10.3438 4 10.6979C4 11.0521 4.125 11.3542 4.375 11.6042ZM9.625 6.39583C9.26389 6.03472 8.90146 5.90546 8.53771 6.00804C8.17397 6.11064 7.92529 6.23296 7.79167 6.375L6.60417 7.54167L8.45833 9.39583L9.625 8.22917C9.875 7.97917 10 7.67361 10 7.3125C10 6.95139 9.875 6.64583 9.625 6.39583ZM1.5 16C1.0875 16 0.734375 15.8531 0.440625 15.5594C0.146875 15.2656 0 14.9125 0 14.5V3.5C0 3.0875 0.146875 2.73438 0.440625 2.44063C0.734375 2.14688 1.0875 2 1.5 2H5.0625C5.17361 1.56944 5.40625 1.21181 5.76042 0.927083C6.11458 0.642361 6.52778 0.5 7 0.5C7.47222 0.5 7.88542 0.642361 8.23958 0.927083C8.59375 1.21181 8.82639 1.56944 8.9375 2H12.5C12.9125 2 13.2656 2.14688 13.5594 2.44063C13.8531 2.73438 14 3.0875 14 3.5V14.5C14 14.9125 13.8531 15.2656 13.5594 15.5594C13.2656 15.8531 12.9125 16 12.5 16H1.5ZM1.5 14.5H12.5V3.5H1.5V14.5ZM7 3C7.14444 3 7.26389 2.95278 7.35833 2.85833C7.45278 2.76389 7.5 2.64444 7.5 2.5C7.5 2.35556 7.45278 2.23611 7.35833 2.14167C7.26389 2.04722 7.14444 2 7 2C6.85556 2 6.73611 2.04722 6.64167 2.14167C6.54722 2.23611 6.5 2.35556 6.5 2.5C6.5 2.64444 6.54722 2.76389 6.64167 2.85833C6.73611 2.95278 6.85556 3 7 3Z" fill="#1C4980"/>
</svg>
